HIERARCHY
ROOT reference
{
  OFFSET 0 0 0
  CHANNELS 6 Xposition Yposition Zposition Zrotation Xrotation Yrotation
  JOINT Hips
  {
    OFFSET 355.919 86.4685 225.794
    CHANNELS 3 Zrotation Xrotation Yrotation
    JOINT RightUpLeg
    {
      OFFSET -9.27022 -1.53975 0.0125073
      CHANNELS 3 Zrotation Xrotation Yrotation
      JOINT RightLeg
      {
        OFFSET 0.013591 -41.8786 0.0152335
        CHANNELS 3 Zrotation Xrotation Yrotation
        JOINT RightFoot
        {
          OFFSET -0.635566 -43.1371 -0.638083
          CHANNELS 3 Zrotation Xrotation Yrotation
          End Site
          {
            OFFSET 0 -7.69 17.5
          }
        }
      }
    }
    JOINT LeftUpLeg
    {
      OFFSET 9.3307 -1.62449 -0.0651281
      CHANNELS 3 Zrotation Xrotation Yrotation
      JOINT LeftLeg
      {
        OFFSET 0.136006 -41.8606 -0.0682192
        CHANNELS 3 Zrotation Xrotation Yrotation
        JOINT LeftFoot
        {
          OFFSET 0.555276 -40.3296 1.11688
          CHANNELS 3 Zrotation Xrotation Yrotation
          End Site
          {
            OFFSET 0 -7.69 17.5
          }
        }
      }
    }
    JOINT Spine
    {
      OFFSET 0.0523142 14.2998 0.0636653
      CHANNELS 3 Zrotation Xrotation Yrotation
      JOINT Spine1
      {
        OFFSET 0.0411785 9.71676 0.0113233
        CHANNELS 3 Zrotation Xrotation Yrotation
        JOINT Spine2
        {
          OFFSET 0.0674534 10.1151 -0.00111457
          CHANNELS 3 Zrotation Xrotation Yrotation
          JOINT Spine3
          {
            OFFSET 0.048863 9.72171 0.0174249
            CHANNELS 3 Zrotation Xrotation Yrotation
            JOINT Neck
            {
              OFFSET 0.180558 10.3768 0.0617075
              CHANNELS 3 Zrotation Xrotation Yrotation
              JOINT Head
              {
                OFFSET 0.135918 9.47305 0.0380206
                CHANNELS 3 Zrotation Xrotation Yrotation
                End Site
                {
                  OFFSET 0 15.95 0
                }
              }
            }
            JOINT RightShoulder
            {
              OFFSET -3.15694 6.89408 0.00348883
              CHANNELS 3 Zrotation Xrotation Yrotation
              JOINT RightArm
              {
                OFFSET -12.7409 -0.0031918 0.045926
                CHANNELS 3 Zrotation Xrotation Yrotation
                JOINT RightForeArm
                {
                  OFFSET -26.5086 -0.0806184 0.00400063
                  CHANNELS 3 Zrotation Xrotation Yrotation
                  JOINT RightHand
                  {
                    OFFSET -26.0338 -0.025514 0.155859
                    CHANNELS 3 Zrotation Xrotation Yrotation
                    JOINT RightHandThumb1
                    {
                      OFFSET -2.48905 0.190105 3.12053
                      CHANNELS 3 Zrotation Xrotation Yrotation
                      JOINT RightHandThumb2
                      {
                        OFFSET -3.68274 0 0
                        CHANNELS 3 Zrotation Xrotation Yrotation
                        JOINT RightHandThumb3
                        {
                          OFFSET -2.55832 0 0
                          CHANNELS 3 Zrotation Xrotation Yrotation
                          End Site
                          {
                            OFFSET -2.194 0 0
                          }
                        }
                      }
                    }
                    JOINT RightInHandIndex
                    {
                      OFFSET -3.22368 0.508421 1.97842
                      CHANNELS 3 Zrotation Xrotation Yrotation
                      JOINT RightHandIndex1
                      {
                        OFFSET -5.21684 -0.091368 0.999158
                        CHANNELS 3 Zrotation Xrotation Yrotation
                        JOINT RightHandIndex2
                        {
                          OFFSET -3.61937 0 0
                          CHANNELS 3 Zrotation Xrotation Yrotation
                          JOINT RightHandIndex3
                          {
                            OFFSET -2.0521 0 0
                            CHANNELS 3 Zrotation Xrotation Yrotation
                            End Site
                            {
                              OFFSET -1.805 0 0
                            }
                          }
                        }
                      }
                    }
                    JOINT RightInHandMiddle
                    {
                      OFFSET -3.38211 0.517263 0.756737
                      CHANNELS 3 Zrotation Xrotation Yrotation
                      JOINT RightHandMiddle1
                      {
                        OFFSET -5.17411 -0.084 0.313895
                        CHANNELS 3 Zrotation Xrotation Yrotation
                        JOINT RightHandMiddle2
                        {
                          OFFSET -3.94947 0 0
                          CHANNELS 3 Zrotation Xrotation Yrotation
                          JOINT RightHandMiddle3
                          {
                            OFFSET -2.47579 0 0
                            CHANNELS 3 Zrotation Xrotation Yrotation
                            End Site
                            {
                              OFFSET -1.975 0 0
                            }
                          }
                        }
                      }
                    }
                    JOINT RightInHandRing
                    {
                      OFFSET -3.36516 0.537895 -0.128947
                      CHANNELS 3 Zrotation Xrotation Yrotation
                      JOINT RightHandRing1
                      {
                        OFFSET -4.63474 -0.022105 -0.478947
                        CHANNELS 3 Zrotation Xrotation Yrotation
                        JOINT RightHandRing2
                        {
                          OFFSET -3.44238 0 0
                          CHANNELS 3 Zrotation Xrotation Yrotation
                          JOINT RightHandRing3
                          {
                            OFFSET -2.3881 0 0
                            CHANNELS 3 Zrotation Xrotation Yrotation
                            End Site
                            {
                              OFFSET -1.857 0 0
                            }
                          }
                        }
                      }
                    }
                    JOINT RightInHandPinky
                    {
                      OFFSET -3.16105 0.469368 -1.20179
                      CHANNELS 3 Zrotation Xrotation Yrotation
                      JOINT RightHandPinky1
                      {
                        OFFSET -4.14105 -0.022105 -1.09053
                        CHANNELS 3 Zrotation Xrotation Yrotation
                        JOINT RightHandPinky2
                        {
                          OFFSET -2.75653 0 0
                          CHANNELS 3 Zrotation Xrotation Yrotation
                          JOINT RightHandPinky3
                          {
                            OFFSET -1.74189 0 0
                            CHANNELS 3 Zrotation Xrotation Yrotation
                            End Site
                            {
                              OFFSET -1.645 0 0
                            }
                          }
                        }
                      }
                    }
                  }
                }
              }
            }
            JOINT LeftShoulder
            {
              OFFSET 3.22505 6.94333 0.022328
              CHANNELS 3 Zrotation Xrotation Yrotation
              JOINT LeftArm
              {
                OFFSET 12.8536 -0.0213048 -0.00476292
                CHANNELS 3 Zrotation Xrotation Yrotation
                JOINT LeftForeArm
                {
                  OFFSET 26.4992 -0.0497473 -0.102272
                  CHANNELS 3 Zrotation Xrotation Yrotation
                  JOINT LeftHand
                  {
                    OFFSET 25.9818 -0.0182282 -0.0189166
                    CHANNELS 3 Zrotation Xrotation Yrotation
                    JOINT LeftHandThumb1
                    {
                      OFFSET 2.48905 0.190105 3.12053
                      CHANNELS 3 Zrotation Xrotation Yrotation
                      JOINT LeftHandThumb2
                      {
                        OFFSET 3.68274 0 0
                        CHANNELS 3 Zrotation Xrotation Yrotation
                        JOINT LeftHandThumb3
                        {
                          OFFSET 2.55832 0 0
                          CHANNELS 3 Zrotation Xrotation Yrotation
                          End Site
                          {
                            OFFSET 2.194 0 0
                          }
                        }
                      }
                    }
                    JOINT LeftInHandIndex
                    {
                      OFFSET 3.22368 0.508421 1.97842
                      CHANNELS 3 Zrotation Xrotation Yrotation
                      JOINT LeftHandIndex1
                      {
                        OFFSET 5.21684 -0.091368 0.999158
                        CHANNELS 3 Zrotation Xrotation Yrotation
                        JOINT LeftHandIndex2
                        {
                          OFFSET 3.61937 0 0
                          CHANNELS 3 Zrotation Xrotation Yrotation
                          JOINT LeftHandIndex3
                          {
                            OFFSET 2.0521 0 0
                            CHANNELS 3 Zrotation Xrotation Yrotation
                            End Site
                            {
                              OFFSET 1.805 0 0
                            }
                          }
                        }
                      }
                    }
                    JOINT LeftInHandMiddle
                    {
                      OFFSET 3.38211 0.517263 0.756737
                      CHANNELS 3 Zrotation Xrotation Yrotation
                      JOINT LeftHandMiddle1
                      {
                        OFFSET 5.17411 -0.084 0.313895
                        CHANNELS 3 Zrotation Xrotation Yrotation
                        JOINT LeftHandMiddle2
                        {
                          OFFSET 3.94947 0 0
                          CHANNELS 3 Zrotation Xrotation Yrotation
                          JOINT LeftHandMiddle3
                          {
                            OFFSET 2.47579 0 0
                            CHANNELS 3 Zrotation Xrotation Yrotation
                            End Site
                            {
                              OFFSET 1.975 0 0
                            }
                          }
                        }
                      }
                    }
                    JOINT LeftInHandRing
                    {
                      OFFSET 3.36516 0.537895 -0.128947
                      CHANNELS 3 Zrotation Xrotation Yrotation
                      JOINT LeftHandRing1
                      {
                        OFFSET 4.63474 -0.022105 -0.478947
                        CHANNELS 3 Zrotation Xrotation Yrotation
                        JOINT LeftHandRing2
                        {
                          OFFSET 3.44238 0 0
                          CHANNELS 3 Zrotation Xrotation Yrotation
                          JOINT LeftHandRing3
                          {
                            OFFSET 2.3881 0 0
                            CHANNELS 3 Zrotation Xrotation Yrotation
                            End Site
                            {
                              OFFSET 1.857 0 0
                            }
                          }
                        }
                      }
                    }
                    JOINT LeftInHandPinky
                    {
                      OFFSET 3.16105 0.469368 -1.20179
                      CHANNELS 3 Zrotation Xrotation Yrotation
                      JOINT LeftHandPinky1
                      {
                        OFFSET 4.14105 -0.022105 -1.09053
                        CHANNELS 3 Zrotation Xrotation Yrotation
                        JOINT LeftHandPinky2
                        {
                          OFFSET 2.75653 0 0
                          CHANNELS 3 Zrotation Xrotation Yrotation
                          JOINT LeftHandPinky3
                          {
                            OFFSET 1.74189 0 0
                            CHANNELS 3 Zrotation Xrotation Yrotation
                            End Site
                            {
                              OFFSET 1.645 0 0
                            }
                          }
                        }
                      }
                    }
                  }
                }
              }
            }
          }
        }
      }
    }
  }
}
MOTION
Frames: 2
Frame Time: 0.00833333
6.000000000000000000e+02 0.000000000000000000e+00 0.000000000000000000e+00 0.000000000000000000e+00 0.000000000000000000e+00 0.000000000000000000e+00 2.284079283417716155e+00 -1.093211150692593225e+00 -5.013760208674983510e+00 8.026450087968665770e+00 1.918295646482909511e+00 9.925405167571350162e+00 7.172923032161833135e-01 -2.038863051739404852e+00 -8.454580957547543907e-01 -1.393237532742080065e+00 3.983142754647450157e-01 1.075704348604456850e+00 9.797125329317085685e-01 4.283199608453964302e+00 -8.396828794812509766e-01 -1.465213484701283653e+00 1.329236210281761865e+00 -2.644055784606472725e-01 8.124050606980960154e+00 2.205563360676485285e+00 6.468154680587423044e+00 -4.634211021337745207e-01 -9.748975763032570185e-01 1.242813034287265195e+00 -1.153794342910153120e-01 -3.520588051002167540e-01 3.380719890965209751e-01 -1.988373354028042383e-01 -4.011977099398448265e-01 4.058756329505514571e-01 -3.522181463360674059e-02 -8.403232063000513896e-02 2.010820801181806006e-01 -5.180690237007671284e-01 -6.396159992138146233e-01 1.791383064812357984e-01 -8.051815058146624127e-01 4.578834507021620759e-01 3.849318475789731409e+00 -8.496360645683997959e-01 1.031714661937624733e+00 -1.757983323087430216e+00 -5.506027064542951877e+00 -1.418130496399457430e+00 -8.677018159133026431e-01 -3.886907245970538494e+00 8.457567111697187334e-01 6.238518687007779562e+00 1.873078843069957866e+00 2.575202795978313475e+00 -8.716596877680620192e-01 0.000000000000000000e+00 0.000000000000000000e+00 0.000000000000000000e+00 -1.000290454102761091e-15 2.100217733526807043e-15 0.000000000000000000e+00 2.961047379674785330e-15 1.973777336735974787e-15 0.000000000000000000e+00 -1.418586279603975380e-15 4.665482057810326301e-16 -5.931728904506709153e-16 0.000000000000000000e+00 0.000000000000000000e+00 0.000000000000000000e+00 0.000000000000000000e+00 3.307575507475410434e-15 -3.103839962790135912e-15 0.000000000000000000e+00 4.986627992171753500e-16 3.715509627325634888e-15 -1.418586279603975380e-15 4.665482057810326301e-16 -5.931728904506709153e-16 0.000000000000000000e+00 -1.433284669069389702e-15 1.837925950472923600e-16 0.000000000000000000e+00 2.165433441099585660e-15 2.171736528570726328e-15 0.000000000000000000e+00 -1.205238624195806289e-15 1.734521130678532815e-15 -1.418586279603975380e-15 4.665482057810326301e-16 -5.931728904506709153e-16 0.000000000000000000e+00 0.000000000000000000e+00 0.000000000000000000e+00 0.000000000000000000e+00 2.842988804513536985e-15 -1.890710915448112973e-15 0.000000000000000000e+00 -4.219573106444705154e-16 9.132947189496201027e-16 -1.418586279603975380e-15 4.665482057810326301e-16 -5.931728904506709153e-16 0.000000000000000000e+00 0.000000000000000000e+00 0.000000000000000000e+00 0.000000000000000000e+00 -4.737614385059985854e-15 -2.456991997733646943e-15 0.000000000000000000e+00 8.404772636406766795e-15 -1.952320629443021233e-15 -1.402000292902836787e+00 -1.582850702362246675e+00 -2.132350569852272226e+00 -5.280301365110409151e-01 1.752957412502057277e+00 -2.972225550835196461e+00 -6.509104446055692605e+00 -9.227396971744810106e-01 -1.556240555156692373e+01 2.623048113863424291e-01 1.045178703631495509e-01 -3.289374022044269541e+00 0.000000000000000000e+00 0.000000000000000000e+00 0.000000000000000000e+00 3.649798344366781121e-15 4.920676587077177992e-15 0.000000000000000000e+00 1.803821756269576049e-15 3.846494892001138187e-16 0.000000000000000000e+00 -1.478009079372064844e-15 1.067620508347637687e-16 1.461140490095689937e-16 0.000000000000000000e+00 0.000000000000000000e+00 0.000000000000000000e+00 0.000000000000000000e+00 -8.041553627368250982e-16 3.065498118554456231e-16 0.000000000000000000e+00 2.461098025193112022e-15 -4.546248848334202931e-15 -1.478009079372064844e-15 1.067620508347637687e-16 1.461140490095689937e-16 0.000000000000000000e+00 1.341387226484112023e-15 -1.087424640362107646e-15 0.000000000000000000e+00 2.901117873231710776e-15 -5.274038741890941238e-16 0.000000000000000000e+00 -2.712879452405528204e-16 -4.986159059277720456e-15 -1.478009079372064844e-15 1.067620508347637687e-16 1.461140490095689937e-16 0.000000000000000000e+00 0.000000000000000000e+00 0.000000000000000000e+00 0.000000000000000000e+00 -2.857061227045209955e-15 -5.235389172506499632e-16 0.000000000000000000e+00 -2.890379782667840691e-15 -5.571933595850689402e-15 -1.478009079372064844e-15 1.067620508347637687e-16 1.461140490095689937e-16 0.000000000000000000e+00 0.000000000000000000e+00 0.000000000000000000e+00 0.000000000000000000e+00 1.571252577999122325e-15 -7.338924294056413653e-16 0.000000000000000000e+00 6.335441340821596278e-15 -2.110396126720503311e-15
6.000000000000000000e+02 0.000000000000000000e+00 0.000000000000000000e+00 0.000000000000000000e+00 0.000000000000000000e+00 0.000000000000000000e+00 2.413073405051356257e+00 -9.492543464892688743e-01 -5.175094231080817231e+00 8.678397028509683864e+00 1.918252068080995576e+00 1.053405020584034801e+01 8.080613707856030281e-01 -2.111648821772323714e+00 -9.268265144353616813e-01 -1.667200519865224440e+00 5.533654831883705327e-01 1.151997404329862196e+00 1.194023120983042086e+00 4.342141926046709344e+00 -6.813850424849281495e-01 -1.261380745003453097e+00 1.595736007214290320e+00 -4.745038097856066339e-01 8.656894374966011441e+00 2.338070729610549847e+00 6.661743635345373171e+00 -3.579023651817738738e-01 -1.024602973820728291e+00 1.196449668597421967e+00 -9.353956298588131379e-02 -3.631022011174175335e-01 3.254989198158475538e-01 -1.621187057045450075e-01 -4.244782153874686603e-01 3.775983456157727680e-01 -4.322637568597007679e-02 -7.569007321764301133e-02 2.261666435839610467e-01 -5.420264539533901083e-01 -6.486597289907845010e-01 -2.897294012163167398e-01 -1.014083894961014032e+00 3.794521338523573761e-01 4.767664101790454190e+00 -8.738054890022239896e-01 1.079682149897623900e+00 -1.875534559465366957e+00 -5.506257387734134312e+00 -1.236840644681549639e+00 -9.762959140307853056e-01 -4.439899363149168998e+00 7.855182165705176800e-01 7.085762382307317253e+00 1.838995438615782740e+00 2.490002996570433780e+00 -2.258046189625766975e-01 0.000000000000000000e+00 0.000000000000000000e+00 0.000000000000000000e+00 -9.258393268093934910e-16 2.083896550829598501e-15 0.000000000000000000e+00 3.272835867265779805e-15 1.857923353575110338e-15 0.000000000000000000e+00 -1.641869590053410290e-15 2.879830267325458164e-16 -4.433669377176541719e-16 0.000000000000000000e+00 0.000000000000000000e+00 0.000000000000000000e+00 0.000000000000000000e+00 3.434372123257898356e-15 -3.612710593868421806e-15 0.000000000000000000e+00 2.047327643802734079e-16 4.088594145317020009e-15 -1.641869590053410290e-15 2.879830267325458164e-16 -4.433669377176541719e-16 0.000000000000000000e+00 -1.459858002819567144e-15 -2.134637935746118192e-16 0.000000000000000000e+00 1.660104130710816275e-15 2.537495812478202866e-15 0.000000000000000000e+00 -6.466239544466842061e-16 1.602696049198821142e-15 -1.641869590053410290e-15 2.879830267325458164e-16 -4.433669377176541719e-16 0.000000000000000000e+00 0.000000000000000000e+00 0.000000000000000000e+00 0.000000000000000000e+00 2.868170839066139428e-15 -1.976188827728519283e-15 0.000000000000000000e+00 -8.019563583785893805e-16 7.839503362979572084e-16 -1.641869590053410290e-15 2.879830267325458164e-16 -4.433669377176541719e-16 0.000000000000000000e+00 0.000000000000000000e+00 0.000000000000000000e+00 0.000000000000000000e+00 -4.824218053851114495e-15 -2.941626401961564067e-15 0.000000000000000000e+00 8.695722831713740665e-15 -2.319327252001775434e-15 -1.429511966604202655e+00 -1.629654275081723336e+00 -2.161968202014024509e+00 -6.067091612971016179e-01 1.856239872415213821e+00 -3.192220784707926473e+00 -5.114380357161279811e+00 -2.798234202442092533e-01 -1.503918701030800698e+01 1.549255933830201992e-01 2.801713002323305002e-01 -3.427743499850618658e+00 0.000000000000000000e+00 0.000000000000000000e+00 0.000000000000000000e+00 3.789054390696349912e-15 5.088413435760994746e-15 0.000000000000000000e+00 2.283034230071213995e-15 2.081191956778185413e-16 0.000000000000000000e+00 -1.113204711269946904e-15 1.485877438733875106e-16 3.129619603266228321e-16 0.000000000000000000e+00 0.000000000000000000e+00 0.000000000000000000e+00 0.000000000000000000e+00 -4.054724489764053602e-16 2.498287508395254842e-16 0.000000000000000000e+00 2.515542667616403292e-15 -4.986362352331324976e-15 -1.113204711269946904e-15 1.485877438733875106e-16 3.129619603266228321e-16 0.000000000000000000e+00 1.157975842733582595e-15 -9.344573968907038324e-16 0.000000000000000000e+00 2.868688466662334596e-15 -4.734983799445853795e-16 0.000000000000000000e+00 -3.015309007981248701e-16 -5.406777925066394723e-15 -1.113204711269946904e-15 1.485877438733875106e-16 3.129619603266228321e-16 0.000000000000000000e+00 0.000000000000000000e+00 0.000000000000000000e+00 0.000000000000000000e+00 -2.993920978734290195e-15 -3.551054056504103976e-16 0.000000000000000000e+00 -3.078875919181707082e-15 -5.644730408233657253e-15 -1.113204711269946904e-15 1.485877438733875106e-16 3.129619603266228321e-16 0.000000000000000000e+00 0.000000000000000000e+00 0.000000000000000000e+00 0.000000000000000000e+00 1.898866155108036800e-15 -9.653798928802046675e-16 0.000000000000000000e+00 6.808463085707998359e-15 -2.473838221837356747e-15
